<svg xmlns="http://www.w3.org/2000/svg" xmlns:xlink="http://www.w3.org/1999/xlink" viewBox="0,0,256,256" width="80px" height="80px"><g fill="#ffffff" fill-rule="nonzero" stroke="none" stroke-width="1" stroke-linecap="butt" stroke-linejoin="miter" stroke-miterlimit="10" stroke-dasharray="" stroke-dashoffset="0" font-family="none" font-weight="none" font-size="none" text-anchor="none" style="mix-blend-mode: normal"><g transform="scale(3.2,3.2)"><path d="M40,7c-18.196,0 -33,14.804 -33,33c0,18.196 14.804,33 33,33c18.196,0 33,-14.804 33,-33c0,-18.196 -14.804,-33 -33,-33zM40,9c17.094,0 31,13.906 31,31c0,17.094 -13.906,31 -31,31c-17.094,0 -31,-13.906 -31,-31c0,-17.094 13.906,-31 31,-31zM39.90039,11.00391c-0.09613,0.01012 -0.19125,0.03617 -0.28125,0.07617c-0.13,0.05 -0.23008,0.11899 -0.33008,0.20898c-0.09,0.1 -0.15898,0.21008 -0.20898,0.33008c-0.05,0.12 -0.08008,0.25086 -0.08008,0.38086c0,0.27 0.09906,0.52094 0.28906,0.71094c0.1,0.09 0.20008,0.15898 0.33008,0.20898c0.12,0.05 0.25086,0.08008 0.38086,0.08008c0.27,0 0.52094,-0.10006 0.71094,-0.28906c0.189,-0.19 0.28906,-0.44094 0.28906,-0.71094c0,-0.13 -0.03008,-0.25891 -0.08008,-0.37891c-0.05,-0.12 -0.12094,-0.23008 -0.21094,-0.33008c-0.05,-0.04 -0.10016,-0.08914 -0.16016,-0.11914c-0.05,-0.04 -0.10992,-0.0718 -0.16992,-0.0918c-0.06,-0.031 -0.11945,-0.04955 -0.18945,-0.06055c-0.0945,-0.0205 -0.19294,-0.02575 -0.28906,-0.01562zM35.88477,11.26172l-0.29102,0.04101c-0.408,0.056 -0.8158,0.11145 -1.2168,0.18945c-0.046,0.009 -0.09272,0.02016 -0.13672,0.03516c-7.146,2.448 -11.94727,9.15636 -11.94727,16.69336c0,2.988 0.76594,5.94474 2.21094,8.55273c0.18,0.324 0.50358,0.51163 0.89258,0.51562c3.899,-0.075 7.48463,1.98133 9.39063,5.36133c2.856,5.063 1.06105,11.50823 -4.00195,14.36523c-4.555,2.568 -10.41191,1.47598 -13.62891,-2.54102c-0.332,-0.417 -0.93228,-0.49945 -1.36328,-0.18945c-0.433,0.311 -0.54677,0.90652 -0.25977,1.35352c0.24,0.374 0.49006,0.73925 0.78906,1.15625c3.441,4.208 8.57039,6.45022 13.77539,6.44922c3.143,0 6.31711,-0.81672 9.16211,-2.51172c2.327,-1.387 4.26481,-3.25755 5.75781,-5.56055c0.211,-0.324 0.21472,-0.74131 0.01172,-1.07031c-2.125,-3.434 -2.09673,-7.84342 0.07227,-11.23242c3.136,-4.896 9.66745,-6.32831 14.56445,-3.19531c4.094,2.621 5.92452,7.87233 4.35352,12.48633c-0.169,0.497 0.07655,1.04114 0.56055,1.24414c0.482,0.206 1.0433,-0.00161 1.2793,-0.47461l0.11328,-0.22266c0.218,-0.431 0.4342,-0.86353 0.6582,-1.39453c2.561,-7.784 -0.64409,-16.53083 -7.62109,-20.79883c-2.725,-1.668 -5.8678,-2.56103 -9.0918,-2.58203h-0.00781c-0.354,0 -0.67938,0.18619 -0.85937,0.49219c-1.893,3.214 -5.37298,5.21094 -9.08398,5.21094c-5.815,0 -10.54492,-4.73192 -10.54492,-10.54492c0,-4.41 2.79031,-8.38744 6.94531,-9.89844c0.482,-0.175 0.75195,-0.68464 0.62695,-1.18164c-0.124,-0.497 -0.59837,-0.81905 -1.10937,-0.74805zM44.2207,11.29883c-0.55,-0.08 -1.06063,0.29961 -1.14062,0.84961c-0.08,0.551 0.29961,1.05062 0.84961,1.14062v-0.00976c0.049,0.01 0.09063,0.00976 0.14062,0.00976c0.49,0 0.92123,-0.34961 0.99023,-0.84961c0.08,-0.55 -0.29984,-1.05086 -0.83984,-1.13086zM47.94336,12.18359c-0.38813,0.04172 -0.73125,0.30953 -0.84375,0.70703c-0.16,0.53 0.14092,1.09 0.66992,1.25c0.089,0.03 0.19125,0.03906 0.28125,0.03906c0.43,0 0.82898,-0.27899 0.95898,-0.70899c0.16,-0.53 -0.13992,-1.09 -0.66992,-1.25c-0.1325,-0.04 -0.26711,-0.05101 -0.39648,-0.03711zM51.9043,13.63672c-0.3907,-0.01453 -0.77161,0.19922 -0.94336,0.57422c-0.241,0.5 -0.02148,1.09812 0.47852,1.32812c0.141,0.069 0.28092,0.10156 0.41992,0.10156c0.381,0 0.74016,-0.21008 0.91016,-0.58008c0.231,-0.5 0.01953,-1.09008 -0.48047,-1.33008c-0.125,-0.0575 -0.25453,-0.08891 -0.38477,-0.09375zM55.60156,15.65234c-0.3825,-0.07078 -0.78672,0.085 -1.01172,0.4375c-0.31,0.45 -0.1807,1.07086 0.2793,1.38086c0.17,0.11 0.35978,0.16992 0.55078,0.16992c0.32,0 0.64008,-0.16117 0.83008,-0.45117c0.31,-0.46 0.1807,-1.07867 -0.2793,-1.38867c-0.115,-0.075 -0.24164,-0.12484 -0.36914,-0.14844zM22.92578,16.85938c-0.08188,-0.00406 -0.16359,0.00203 -0.24609,0.01953c-0.059,0.01 -0.12945,0.03155 -0.18945,0.06055c-0.061,0.021 -0.12088,0.04984 -0.17187,0.08984c-0.049,0.039 -0.10844,0.07914 -0.14844,0.11914c-0.191,0.19 -0.30078,0.45094 -0.30078,0.71094c0,0.271 0.11078,0.51998 0.30078,0.70898c0.18,0.19 0.43994,0.29102 0.71094,0.29102c0.26,0 0.51727,-0.10002 0.69727,-0.29102c0.19,-0.189 0.30078,-0.43798 0.30078,-0.70898c0,-0.26 -0.11178,-0.52094 -0.30078,-0.71094c-0.1725,-0.1725 -0.40672,-0.27688 -0.65234,-0.28906zM28.9707,17.07422c-0.994,1.809 -1.54883,3.86767 -1.54883,6.01367c0,6.917 5.62792,12.54492 12.54492,12.54492c4.218,0 8.18514,-2.16645 10.49414,-5.68945c2.664,0.11 5.24881,0.89144 7.50781,2.27344c3.989,2.441 6.58798,6.53194 7.33398,10.96094c-0.995,-2.082 -2.54659,-3.90441 -4.55859,-5.19141c-5.825,-3.732 -13.59522,-2.02327 -17.32422,3.80273c-2.464,3.849 -2.60892,8.80383 -0.41992,12.79883c-1.275,1.813 -2.87467,3.29883 -4.76367,4.42383c-4.151,2.474 -9.07977,2.84814 -13.38477,1.36914c2.354,0.122 4.75902,-0.40505 6.91602,-1.62305c6.025,-3.401 8.15972,-11.06684 4.76172,-17.08984c-2.167,-3.841 -6.16688,-6.242 -10.54687,-6.375c-1.106,-2.184 -1.6875,-4.61727 -1.6875,-7.07227c0,-4.285 1.74878,-8.26748 4.67578,-11.14648zM58.59375,18.13281c-0.25762,0.0125 -0.51031,0.12313 -0.69531,0.32813c-0.369,0.42 -0.32992,1.04992 0.08008,1.41992c0.191,0.17 0.43092,0.25 0.66992,0.25c0.27,0 0.55123,-0.11008 0.74023,-0.33008c0.37,-0.41 0.33969,-1.05016 -0.07031,-1.41016c-0.2045,-0.185 -0.46698,-0.27031 -0.72461,-0.25781zM19.76758,19.64258c-0.255,0.005 -0.50677,0.10664 -0.69727,0.30664c-0.39,0.399 -0.3697,1.03016 0.0293,1.41016c0.19,0.191 0.43945,0.28125 0.68945,0.28125c0.26,0 0.5207,-0.10055 0.7207,-0.31055c0.38,-0.4 0.3707,-1.03016 -0.0293,-1.41016c-0.1995,-0.19 -0.45789,-0.28234 -0.71289,-0.27734zM61.57422,21.06836c-0.255,-0.0225 -0.51937,0.05242 -0.73437,0.23242c-0.42,0.349 -0.47914,0.98016 -0.11914,1.41016c0.19,0.229 0.47977,0.34866 0.75977,0.34766c0.23,0 0.46039,-0.06852 0.65039,-0.22852c0.42,-0.35 0.47814,-0.98016 0.11914,-1.41016c-0.175,-0.21 -0.42078,-0.32906 -0.67578,-0.35156zM16.98633,22.8418c-0.25125,0.04387 -0.48648,0.1832 -0.64648,0.4082c-0.321,0.451 -0.21977,1.07062 0.24023,1.39063c0.17,0.13 0.37031,0.18945 0.57031,0.18945c0.32,0 0.62031,-0.14992 0.82031,-0.41992c0.321,-0.46 0.20977,-1.08039 -0.24023,-1.40039c-0.225,-0.1605 -0.49289,-0.21184 -0.74414,-0.16797zM63.71289,24.38281c-0.12875,0.01938 -0.25555,0.06422 -0.37305,0.13672c-0.469,0.29 -0.61031,0.90891 -0.32031,1.37891c0.19,0.301 0.50961,0.4707 0.84961,0.4707c0.18,0 0.36148,-0.03962 0.52148,-0.14062c0.47,-0.29 0.62008,-0.90891 0.33008,-1.37891c-0.2175,-0.3525 -0.62156,-0.52492 -1.00781,-0.4668zM15.08789,26.36523c-0.39014,-0.02625 -0.7793,0.17742 -0.9668,0.54492c-0.25,0.49 -0.05055,1.09961 0.43945,1.34961c0.15,0.07 0.29917,0.09861 0.45117,0.09961c0.37,0 0.71744,-0.19806 0.89844,-0.53906c0.25,-0.5 0.05055,-1.09961 -0.43945,-1.34961c-0.12275,-0.0625 -0.25277,-0.09672 -0.38281,-0.10547zM65.74023,27.99609c-0.13055,0.00145 -0.26313,0.02873 -0.39062,0.08398c-0.51,0.21 -0.74053,0.80055 -0.51953,1.31055c0.16,0.38 0.52892,0.59861 0.91992,0.59961c0.13,0 0.26063,-0.02008 0.39063,-0.08008c0.509,-0.221 0.7393,-0.80055 0.5293,-1.31055c-0.16425,-0.3825 -0.53805,-0.60787 -0.92969,-0.60352zM13.34375,30.18164c-0.38948,0.03141 -0.73773,0.28773 -0.86523,0.67773h-0.00977c-0.17,0.531 0.11163,1.09148 0.64063,1.27148c0.101,0.03 0.20955,0.04983 0.31055,0.04883c0.42,0 0.80822,-0.26945 0.94922,-0.68945c0.18,-0.521 -0.10891,-1.09172 -0.62891,-1.26172c-0.13275,-0.0425 -0.26666,-0.05734 -0.39648,-0.04687zM67.21289,31.85742c-0.1283,-0.01859 -0.26203,-0.01156 -0.39453,0.02344c-0.539,0.14 -0.84898,0.68875 -0.70898,1.21875c0.12,0.45 0.5207,0.751 0.9707,0.75c0.08,0 0.17,-0.01025 0.25,-0.03125c0.529,-0.139 0.84898,-0.68852 0.70898,-1.22852c-0.10575,-0.3975 -0.44128,-0.67664 -0.82617,-0.73242zM12.57813,34.20117c-0.54,-0.091 -1.05844,0.26836 -1.14844,0.81836c-0.099,0.54 0.27055,1.06039 0.81055,1.15039c0.06,0.01 0.11797,0.01853 0.16797,0.01953c0.479,0 0.90024,-0.34008 0.99024,-0.83008c0.091,-0.55 -0.27031,-1.0582 -0.82031,-1.1582zM67.82422,35.88867c-0.26,0.00125 -0.52008,0.09625 -0.70508,0.28125c-0.09,0.09 -0.1697,0.20031 -0.2207,0.32031c-0.049,0.119 -0.06836,0.25062 -0.06836,0.39063c0,0.13 0.01836,0.25891 0.06836,0.37891c0.051,0.12 0.1197,0.23031 0.2207,0.32031c0.09,0.1 0.20031,0.1717 0.32031,0.2207c0.12,0.049 0.24962,0.06836 0.39063,0.06836c0.27,0 0.51922,-0.09906 0.69922,-0.28906c0.19,-0.19 0.30078,-0.43922 0.30078,-0.69922c0,-0.14 -0.03008,-0.26062 -0.08008,-0.39062c-0.05,-0.12 -0.1207,-0.23031 -0.2207,-0.32031c-0.185,-0.19 -0.44508,-0.2825 -0.70508,-0.28125zM12.0293,38.30078c-0.551,-0.01 -1.00953,0.42752 -1.01953,0.97852c-0.019,0.55 0.41875,1.01148 0.96875,1.02148h0.03125c0.54,0 0.98,-0.4307 1,-0.9707c0.01,-0.56 -0.43047,-1.0193 -0.98047,-1.0293zM12.08984,42.43945c-0.55,0.07 -0.93914,0.56133 -0.86914,1.11133c0.06,0.51 0.49024,0.87891 0.99024,0.87891h0.11914c0.55,-0.07 0.93814,-0.56914 0.86914,-1.11914c-0.07,-0.55 -0.56937,-0.94009 -1.10937,-0.87109zM13.14453,46.49219c-0.12842,-0.01723 -0.26203,-0.00991 -0.39453,0.02734c-0.53673,0.14909 -0.84278,0.69364 -0.69922,1.23047c0.12,0.45 0.52975,0.74023 0.96875,0.74023c0.08,0 0.16877,-0.01201 0.25977,-0.04102c0.529,-0.15 0.84922,-0.69852 0.69922,-1.22852c-0.11175,-0.3975 -0.44872,-0.67681 -0.83399,-0.72852zM14.31641,50.37891c-0.09625,0.0115 -0.19261,0.03531 -0.28711,0.07031c-0.12,0.05 -0.22836,0.1197 -0.31836,0.2207c-0.191,0.179 -0.30078,0.43822 -0.30078,0.69922c0,0.27 0.11078,0.52094 0.30078,0.71094c0.18,0.189 0.43798,0.28906 0.70898,0.28906c0.26,0 0.51922,-0.09906 0.69922,-0.28906c0.19,-0.19 0.30078,-0.44094 0.30078,-0.71094c0,-0.261 -0.11178,-0.51922 -0.30078,-0.69922c-0.04,-0.05 -0.10039,-0.09086 -0.15039,-0.13086c-0.05,-0.03 -0.10992,-0.06084 -0.16992,-0.08984c-0.059,-0.021 -0.12845,-0.03955 -0.18945,-0.06055c-0.0995,-0.02 -0.19672,-0.02127 -0.29297,-0.00977zM62.52539,55.48242c-0.09862,0.00875 -0.19516,0.03141 -0.28516,0.06641c-0.12,0.05 -0.23031,0.1307 -0.32031,0.2207c-0.101,0.09 -0.1707,0.20008 -0.2207,0.33008c-0.051,0.12 -0.08008,0.24891 -0.08008,0.37891c0,0.261 0.11078,0.51217 0.30078,0.70117c0.189,0.191 0.43994,0.29883 0.71094,0.29883c0.26,0 0.50827,-0.10783 0.69727,-0.29883c0.1,-0.09 0.1707,-0.20031 0.2207,-0.32031c0.049,-0.119 0.07031,-0.25086 0.07031,-0.38086c0,-0.13 -0.02031,-0.25891 -0.07031,-0.37891c-0.05,-0.13 -0.1307,-0.24008 -0.2207,-0.33008c-0.04,-0.05 -0.09844,-0.09109 -0.14844,-0.12109c-0.05,-0.04 -0.10992,-0.06961 -0.16992,-0.09961c-0.059,-0.02 -0.13041,-0.04078 -0.19141,-0.05078c-0.0945,-0.02 -0.19434,-0.02437 -0.29297,-0.01562zM59.92969,58.63867c-0.25637,0.00125 -0.51117,0.10128 -0.70117,0.30078c-0.389,0.39 -0.38828,1.02016 0.01172,1.41016c0.19,0.19 0.44922,0.29102 0.69922,0.29102c0.261,0 0.51998,-0.10078 0.70898,-0.30078c0.39,-0.389 0.38123,-1.03016 -0.00977,-1.41016c-0.1945,-0.1945 -0.45261,-0.29227 -0.70898,-0.29102zM56.95703,61.38281c-0.25263,-0.03625 -0.51633,0.023 -0.73633,0.1875c-0.45,0.33 -0.53117,0.96139 -0.20117,1.40039c0.2,0.259 0.49983,0.39844 0.79883,0.39844c0.211,0 0.42156,-0.06922 0.60156,-0.19922c0.439,-0.33 0.52922,-0.96039 0.19922,-1.40039c-0.1695,-0.2195 -0.40948,-0.35047 -0.66211,-0.38672zM53.23047,63.61914c-0.12937,0.01358 -0.25836,0.05334 -0.38086,0.12109c-0.479,0.259 -0.66139,0.86938 -0.40039,1.35938c0.18,0.33 0.52986,0.51953 0.88086,0.51953c0.16,0 0.32952,-0.03914 0.47852,-0.11914c0.48,-0.27 0.66039,-0.87937 0.40039,-1.35937c-0.2025,-0.3675 -0.59039,-0.56222 -0.97852,-0.52148zM29.25,64.86523c-0.2625,0 -0.52594,0.09516 -0.71094,0.28516c-0.09,0.091 -0.15898,0.20031 -0.20898,0.32031c-0.05,0.13 -0.08008,0.24891 -0.08008,0.37891c0,0.271 0.09906,0.52194 0.28906,0.71094c0.189,0.19 0.43994,0.28906 0.71094,0.28906c0.13,0 0.26086,-0.01936 0.38086,-0.06836c0.12,-0.051 0.22908,-0.1307 0.33008,-0.2207c0.189,-0.189 0.28906,-0.43994 0.28906,-0.71094c0,-0.26 -0.10906,-0.51822 -0.28906,-0.69922c-0.185,-0.19 -0.44844,-0.28516 -0.71094,-0.28516zM49.60352,65.32031c-0.12953,-0.00672 -0.26258,0.01305 -0.39258,0.06055c-0.521,0.189 -0.79056,0.76806 -0.60156,1.28906c0.151,0.399 0.53045,0.64939 0.93945,0.65039c0.111,0 0.23084,-0.02055 0.33984,-0.06055c0.521,-0.19 0.79056,-0.7583 0.60156,-1.2793c-0.1425,-0.39 -0.49813,-0.64 -0.88672,-0.66016zM33.05078,66.17969c-0.38578,0.05859 -0.71305,0.34273 -0.81055,0.74023c-0.14,0.54 0.1907,1.0807 0.7207,1.2207h0.00977c0.08,0.02 0.15928,0.0293 0.23828,0.0293c0.45,0 0.8507,-0.31077 0.9707,-0.75977c0.13,-0.54 -0.20147,-1.08094 -0.73047,-1.21094c-0.135,-0.035 -0.26984,-0.03906 -0.39844,-0.01953zM45.75586,66.46484c-0.12736,-0.02453 -0.26148,-0.02414 -0.39648,0.00586c-0.54,0.1 -0.8893,0.62992 -0.7793,1.16992c0.09,0.48 0.51047,0.80955 0.98047,0.81055c0.06,0 0.12922,-0.01148 0.19922,-0.02148c0.54,-0.12 0.8883,-0.63969 0.7793,-1.17969c-0.08325,-0.4125 -0.40113,-0.71156 -0.7832,-0.78516zM37.39063,66.86914c-0.55,-0.051 -1.03984,0.35039 -1.08984,0.90039c-0.05,0.55 0.34744,1.03984 0.89844,1.08984c0.029,0.011 0.06156,0.00977 0.10156,0.00977c0.5,0 0.93828,-0.38844 0.98828,-0.89844c0.05,-0.55 -0.34844,-1.04156 -0.89844,-1.10156zM41.38867,66.96094c-0.55,0.03 -0.96922,0.49883 -0.94922,1.04883c0.031,0.54 0.471,0.95117 1,0.95117h0.05078c0.55,-0.03 0.97922,-0.50078 0.94922,-1.05078c-0.029,-0.551 -0.50078,-0.97022 -1.05078,-0.94922z"></path></g></g></svg>