<svg width="54.884521" height="83.300049" viewBox="0 0 54.8845 83.3" fill="none" xmlns="http://www.w3.org/2000/svg" >


<!-- Skills -->

<g id="figma">

		<path id="Vector" d="M41.4136 27.7625C45.0231 27.6541 48.4484 26.1443 50.9632 23.5527C53.478 20.9614 54.8845 17.4922 54.8845 13.8813C54.8845 10.2703 53.478 6.80103 50.9632 4.20972C48.4484 1.61841 45.0231 0.108398 41.4136 0L13.647 0C10.0375 0.108398 6.61221 1.61841 4.09741 4.20972C1.58261 6.80103 0.176056 10.2703 0.176056 13.8813C0.176056 17.4922 1.58261 20.9614 4.09741 23.5527C6.61221 26.1443 10.0375 27.6541 13.647 27.7625C10.006 27.8257 6.53543 29.3162 3.98288 31.9133C1.43033 34.5105 0 38.0063 0 41.6479C0 45.2896 1.43033 48.7854 3.98288 51.3823C6.53543 53.9795 10.006 55.4702 13.647 55.5334C10.0238 55.6221 6.57883 57.1238 4.04764 59.7178C1.51645 62.3118 0.0996094 65.7925 0.0996094 69.4167C0.0996094 73.041 1.51645 76.5217 4.04764 79.1155C6.57883 81.7095 10.0238 83.2112 13.647 83.3C17.3291 83.2979 20.8597 81.8337 23.463 79.2297C26.0663 76.6257 27.5292 73.0947 27.5303 69.4126L27.5303 27.7625L41.4136 27.7625Z" fill="#FFFFFF" fill-opacity="0.500000" fill-rule="nonzero"/>

</g>


<g id="react">

		<path d="M100 48.7043C100 42.0793 91.7042 35.8 78.9833 31.9084C81.9208 18.9458 80.6167 8.62915 74.8667 5.3252C73.4734 4.54468 71.8965 4.15186 70.3 4.1875L70.3 8.72925C71.2375 8.72925 71.9916 8.91675 72.625 9.2627C75.3959 10.8542 76.6 16.9043 75.6625 24.6917C75.4375 26.6084 75.0708 28.625 74.6208 30.6833C70.361 29.657 66.0375 28.915 61.6791 28.4626C59.0827 24.8804 56.2501 21.4756 53.2 18.271C59.8458 12.0959 66.0833 8.71265 70.325 8.71265L70.325 4.16675C64.7167 4.16675 57.3792 8.1626 49.9583 15.0918C42.5417 8.2085 35.2 4.25 29.5958 4.25L29.5958 8.79175C33.8167 8.79175 40.075 12.1584 46.7208 18.2917C43.8667 21.2917 41.0125 24.6917 38.3 28.4626C33.9326 28.9099 29.6014 29.6589 25.3375 30.7043C24.8666 28.6667 24.5208 26.6917 24.275 24.7959C23.3167 17.0042 24.5 10.9543 27.2542 9.34595C27.8625 8.97925 28.6583 8.8125 29.5958 8.8125L29.5958 4.271C27.8875 4.271 26.3333 4.6377 24.9917 5.40845C19.2625 8.71265 17.9792 19.0042 20.9333 31.9292C8.25415 35.8459 0 42.1001 0 48.7043C0 55.3293 8.29584 61.6084 21.0167 65.4958C18.0792 78.4626 19.3834 88.7793 25.1334 92.0793C26.4583 92.8542 28.0084 93.2209 29.7167 93.2209C35.325 93.2209 42.6625 89.2251 50.0833 82.2959C57.5 89.1833 64.8375 93.1377 70.4458 93.1377C72.0546 93.1716 73.6435 92.7776 75.05 91.9958C80.7792 88.6958 82.0625 78.4043 79.1083 65.4792C91.7458 61.5876 100 55.3083 100 48.7043ZM73.4583 35.1084C72.6666 37.8328 71.749 40.519 70.7083 43.1584C69.0048 39.845 67.1344 36.6199 65.1042 33.4958C68 33.925 70.7917 34.4543 73.4625 35.1084L73.4583 35.1084ZM64.125 56.8167C62.5375 59.5667 60.9042 62.1792 59.2125 64.6042C53.0969 65.1433 46.946 65.1501 40.8292 64.625C37.3206 59.6133 34.2522 54.3074 31.6583 48.7668C34.2483 43.2131 37.3036 37.8884 40.7917 32.8501C46.9058 32.3101 53.0552 32.3015 59.1708 32.8252C60.8625 35.25 62.5167 37.8418 64.1042 40.5752C65.6542 43.2417 67.0625 45.9502 68.3458 48.6833C67.0483 51.45 65.6402 54.1631 64.125 56.8167ZM70.7083 54.1667C71.8083 56.896 72.75 59.6292 73.5208 62.2793C70.8542 62.9333 68.0375 63.4834 65.125 63.9084C67.1469 60.7561 69.0103 57.5046 70.7083 54.1667ZM50.0417 75.9167C48.1458 73.9585 46.25 71.7793 44.375 69.3918C46.2083 69.4751 48.0833 69.5376 49.9792 69.5376C51.8958 69.5376 53.7917 69.4958 55.6458 69.3918C53.8125 71.7793 51.9167 73.9585 50.0417 75.9167ZM34.875 63.9084C32.0656 63.5015 29.2765 62.9646 26.5167 62.3C27.2708 59.6709 28.2083 56.9585 29.2667 54.25C30.1042 55.875 30.9833 57.5083 31.9417 59.1418C32.9 60.771 33.875 62.3625 34.875 63.9084ZM49.9375 21.4917C51.8333 23.4502 53.7292 25.6292 55.6042 28.0168C53.7708 27.9333 51.8958 27.8708 50 27.8708C48.0833 27.8708 46.1875 27.9126 44.3333 28.0168C46.1667 25.6292 48.0625 23.4502 49.9375 21.4917ZM34.8542 33.5C32.8328 36.6458 30.9694 39.8899 29.2708 43.2209C28.2009 40.5645 27.2623 37.8572 26.4583 35.1084C29.125 34.4751 31.9417 33.925 34.8542 33.5ZM16.4083 59.0168C9.19165 55.9417 4.52502 51.9043 4.52502 48.7043C4.52502 45.5042 9.19165 41.4458 16.4083 38.3918C18.1583 37.6377 20.075 36.9626 22.0541 36.3335C23.2167 40.3252 24.7458 44.4834 26.6375 48.7458C24.8515 52.7551 23.3411 56.8813 22.1166 61.0959C20.181 60.4966 18.276 59.8027 16.4083 59.0168ZM27.375 88.1418C24.6042 86.5583 23.4 80.5 24.3375 72.7168C24.5625 70.8 24.9291 68.7793 25.3792 66.7209C29.3708 67.7002 33.7333 68.4543 38.3208 68.9458C40.9174 72.5278 43.7501 75.9326 46.8 79.1377C40.1542 85.3125 33.9167 88.6958 29.675 88.6958C28.8748 88.7046 28.0847 88.5156 27.375 88.146L27.375 88.1418ZM75.725 72.6125C76.6833 80.4001 75.5 86.4543 72.7458 88.0625C72.1375 88.4292 71.3417 88.5918 70.4042 88.5918C66.1833 88.5918 59.925 85.2292 53.2792 79.0918C56.1334 76.1001 58.9875 72.6958 61.7 68.925C66.0674 68.4778 70.3986 67.7288 74.6625 66.6833C75.1334 68.7417 75.4958 70.7168 75.725 72.6125ZM83.5708 59.0168C81.8208 59.771 79.9042 60.4458 77.925 61.0752C76.6791 56.8389 75.1478 52.6919 73.3417 48.6626C75.2167 44.425 76.7208 40.2876 77.8625 36.3125C79.8833 36.9417 81.7958 37.6377 83.5917 38.3918C90.8083 41.4668 95.475 45.5042 95.475 48.7043C95.4542 51.9043 90.7875 55.9626 83.5708 59.0168Z" fill="#FFFFFF" fill-opacity="0.500000" fill-rule="nonzero"/>
		<path d="M49.9791 58.0208C52.4501 58.0208 54.8198 57.0393 56.567 55.292C58.3142 53.5447 59.2958 51.175 59.2958 48.7041C59.2958 46.2332 58.3142 43.8635 56.567 42.1162C54.8198 40.3691 52.4501 39.3875 49.9791 39.3875C47.5082 39.3875 45.1385 40.3691 43.3912 42.1162C41.644 43.8635 40.6625 46.2332 40.6625 48.7041C40.6625 51.175 41.644 53.5447 43.3912 55.292C45.1385 57.0393 47.5082 58.0208 49.9791 58.0208Z" fill="#FFFFFF" fill-opacity="0.500000" fill-rule="nonzero"/>
		
</g>


<g id="html">

		<path id="Vector" d="M0 0L6.44531 72.9102L35.8203 81.25L65.0781 72.9102L71.6504 0L0 0ZM58.1055 17.2949L57.6367 21.9043L57.4707 23.8086L23.1543 23.8086L23.9551 33.0078L56.6797 33.0078L56.3574 35.3809L54.2871 59.0332L54.1211 60.6152L35.8594 65.6543L35.8594 65.6836L35.7422 65.6836L35.7129 65.6934L35.7129 65.6836L35.7031 65.6836L17.2852 60.6055L16.1719 46.4844L25.0684 46.4844L25.7031 53.6328L35.7031 56.3379L35.7422 56.3379L45.7031 53.6426L46.8164 42.0605L35.7129 42.0605L35.7129 42.0508L15.7031 42.0508L13.4766 17.2949L13.3105 14.9219L58.2617 14.9219L58.1055 17.2949Z" fill="#FFFFFF" fill-opacity="0.500000" fill-rule="nonzero"/>

</g>


<g id="css">

		<path id="Vector" d="M0 0L65.0625 0L59.1458 66.8083L32.4625 74.3584L5.925 66.8042L0 0ZM52.95 13.6709L12.1167 13.6626L12.775 21.7834L44.1458 21.7917L43.3583 30.2083L22.7833 30.2083L23.5292 38.1792L42.6833 38.1792L41.55 49.0959L32.5333 51.5874L23.3792 49.075L22.7917 42.5376L14.7083 42.5376L15.6083 54.4834L32.5333 59.7542L49.1792 55.0166L52.95 13.6709Z" fill="#FFFFFF" fill-opacity="0.500000" fill-rule="nonzero"/>

</g>


<g id="sass">

		<path id="Vector" d="M86.0886 43.1118C82.9448 43.1118 79.8448 43.8306 77.0261 45.2212C76.1042 43.3618 75.1511 41.7368 74.9948 40.5181C74.8073 39.0962 74.6042 38.2524 74.8229 36.5649C75.0417 34.8774 76.0261 32.4868 76.0104 32.3149C75.9948 32.1431 75.7917 31.2837 73.7761 31.2681C71.7604 31.2524 70.0261 31.6587 69.8229 32.1899C69.4663 33.1606 69.1893 34.1587 68.9948 35.1743C68.6354 37.0024 64.9667 43.5337 62.8886 46.9399C62.2011 45.6118 61.623 44.4399 61.498 43.5024C61.3105 42.0806 61.1073 41.2368 61.3261 39.5493C61.5448 37.8618 62.5292 35.4712 62.5136 35.2993C62.498 35.1274 62.2948 34.2681 60.2823 34.2524C58.2698 34.2368 56.5323 34.6431 56.3292 35.1743C56.1261 35.7056 55.9073 36.9556 55.5011 38.1587C55.0948 39.3618 50.2042 50.2368 48.9261 53.0649C48.2698 54.5024 47.7073 55.6587 47.3011 56.4399C47.2386 56.5649 47.1917 56.6431 47.1605 56.7056C47.2073 56.6274 47.2386 56.5493 47.2386 56.5806C46.8948 57.2524 46.6917 57.6274 46.6917 57.6274L46.6917 57.6431C46.4261 58.1431 46.1292 58.5962 45.9886 58.5962C45.8948 58.5962 45.6917 57.2837 46.0355 55.4868C46.7698 51.7056 48.5042 45.8306 48.4886 45.6274C48.473 45.5181 48.8167 44.5024 47.348 43.9556C45.9261 43.4399 45.4105 44.2993 45.2855 44.2993C45.1605 44.2993 45.0667 44.6118 45.0667 44.6118C45.0667 44.6118 46.6448 37.9868 42.0355 37.9868C39.1605 37.9868 35.1605 41.1431 33.1948 44.0024C31.9604 44.6743 29.2886 46.1274 26.4761 47.6743L23.2417 49.4556C23.1636 49.3774 23.1011 49.2993 23.0229 49.2212C17.4292 43.2524 7.10419 39.0337 7.54169 31.0181C7.69794 28.0962 8.71356 20.4243 27.3979 11.1118C42.7104 3.48682 54.9511 5.58057 57.0605 10.2368C60.0917 16.8774 50.5136 29.2368 34.6136 31.0181C28.5511 31.6899 25.3667 29.3462 24.5698 28.4712C23.7417 27.5493 23.6167 27.5024 23.3042 27.6743C22.7886 27.9556 23.1167 28.7681 23.3042 29.2524C23.7729 30.4868 25.7261 32.6743 29.0542 33.7681C31.9761 34.7212 39.0823 35.2524 47.6729 31.9243C57.3261 28.2056 64.8417 17.8462 62.6354 9.17432C60.3917 0.361816 45.7792 -2.52881 31.9636 2.37744C23.7292 5.29932 14.8261 9.89307 8.42294 15.8774C0.813568 23.0024 -0.402069 29.2056 0.0979309 31.7993C1.87918 41.0024 14.5636 47.0024 19.6386 51.4399L18.9355 51.8306C16.3886 53.0962 6.71982 58.1587 4.29794 63.5024C1.56357 69.5649 4.75107 73.9087 6.84171 74.5024C13.373 76.3149 20.0573 73.0493 23.6511 67.6899C27.2448 62.3306 26.8073 55.3306 25.1511 52.1431C25.1354 52.0962 25.1042 52.0649 25.0886 52.0181C26.9635 50.9075 28.8543 49.8242 30.7604 48.7681C30.1354 50.4556 29.6823 52.4868 29.4479 55.4243C29.1667 58.8618 30.5886 63.3149 32.4323 65.0649C33.2448 65.8306 34.2261 65.8462 34.8386 65.8462C36.9948 65.8462 37.9636 64.0649 39.0417 61.9399C40.3698 59.3462 41.5417 56.3306 41.5417 56.3306C41.5417 56.3306 40.0729 64.4868 44.0886 64.4868C45.5573 64.4868 47.0261 62.5962 47.6823 61.6274L47.6823 61.6431C47.6823 61.6431 47.7136 61.5806 47.7917 61.4556C47.9479 61.2212 48.0261 61.0806 48.0261 61.0806L48.0261 61.0337C48.6198 60.0181 49.9167 57.6899 51.8698 53.8462C54.4011 48.8774 56.8198 42.6743 56.8198 42.6743C57.0542 44.0369 57.3792 45.3838 57.7886 46.7056C58.2261 48.1899 59.1479 49.8149 59.8823 51.3931C59.2886 52.2056 58.9292 52.6743 58.9292 52.6743C58.9292 52.6868 58.9355 52.6963 58.9448 52.7056C58.4761 53.3306 57.9448 54.0024 57.3979 54.6587C55.4011 57.0337 53.0229 59.7524 52.7104 60.5337C52.3354 61.4556 52.4292 62.1431 53.1479 62.6743C53.6792 63.0806 54.6167 63.1431 55.6011 63.0649C57.3979 62.9399 58.6636 62.5024 59.2729 62.2212C60.3969 61.8186 61.4592 61.261 62.4292 60.5649C64.3823 59.1274 65.5698 57.0649 65.4604 54.3462C65.3979 52.8462 64.9136 51.3462 64.3198 49.9399C64.4917 49.6899 64.6792 49.4243 64.8511 49.1587C66.8844 46.1248 68.7165 42.9607 70.3354 39.6868C70.5698 41.0493 70.8917 42.3962 71.3042 43.718C71.6792 44.9836 72.4136 46.3743 73.0854 47.7336C70.1792 50.093 68.3823 52.8274 67.7604 54.6243C66.6042 57.9524 67.5104 59.4524 69.2136 59.7961C69.9792 59.9524 71.0729 59.593 71.8854 59.2493C73.0917 58.8462 74.2292 58.262 75.2573 57.5149C77.2104 56.0774 79.1011 54.0618 78.973 51.3274C78.9261 50.093 78.5823 48.8586 78.1292 47.6711C80.5823 46.6399 83.7698 46.0774 87.8323 46.5461C96.5323 47.5618 98.2354 52.9993 97.9073 55.2649C97.5792 57.5305 95.751 58.7961 95.1417 59.1711C94.5323 59.5461 94.3448 59.6868 94.3917 59.968C94.4698 60.3743 94.7511 60.3586 95.2667 60.2649C95.9854 60.1399 99.8292 58.4211 100.001 54.218C100.251 48.9055 95.1417 43.0618 86.0948 43.1086L86.0886 43.1118ZM19.0292 65.7212C16.1542 68.8618 12.1261 70.0493 10.3917 69.0493C8.53232 67.968 9.26669 63.3462 12.8105 59.9993C14.9667 57.968 17.748 56.093 19.5917 54.9368C20.0136 54.6868 20.623 54.3118 21.373 53.8586C21.4339 53.8196 21.4965 53.7832 21.5605 53.7493C21.7011 53.6555 21.8573 53.5774 22.0136 53.4836C23.3073 58.2336 22.0605 62.4211 19.0292 65.718L19.0292 65.7212ZM40.0229 51.4399C39.0229 53.8931 36.9167 60.1431 35.6323 59.8149C34.5386 59.5337 33.8667 54.7681 35.4136 50.0806C36.1948 47.7212 37.8511 44.9087 38.8354 43.8149C40.4136 42.0493 42.1479 41.4868 42.5542 42.1899C43.1011 43.1118 40.6479 49.9087 40.0229 51.4399ZM57.3667 59.7212C56.9448 59.9399 56.5542 60.0806 56.3667 59.9712C56.2261 59.8931 56.5386 59.5962 56.5386 59.5962C56.5386 59.5962 58.7104 57.2681 59.5698 56.2056C60.0698 55.5806 60.6479 54.8462 61.2729 54.0337C61.2729 54.1118 61.2886 54.1899 61.2886 54.2837C61.2698 57.0806 58.5823 58.9712 57.3636 59.7212L57.3667 59.7212ZM70.7417 56.6743C70.4292 56.4556 70.4761 55.7212 71.5229 53.4399C71.9292 52.5493 72.8667 51.0493 74.4917 49.6118C74.6761 50.1555 74.7761 50.7244 74.7886 51.2993C74.7729 54.8149 72.2573 56.1274 70.7417 56.6743Z" fill="#FFFFFF" fill-opacity="0.500000" fill-rule="nonzero"/>

</g>


<!--About Icon-->

<g id="download">

	<path id="Vector" d="M9.33463 11L9.33463 1L9.33463 11M12.668 7.66675L9.33463 11L6.0013 7.66675L9.33463 11" stroke="#FFFFFF" stroke-opacity="1.000000" stroke-width="2.000000" stroke-linejoin="round" fill="none"/>
	<path id="Vector" d="M1.0013 12.6667L1.5188 14.7375C1.60892 15.0981 1.81699 15.4182 2.10991 15.647C2.40283 15.8757 2.76381 16 3.13547 16L15.5338 16C15.9055 16 16.2664 15.8757 16.5594 15.647C16.8523 15.4182 17.0603 15.0981 17.1505 14.7375L17.668 12.6667" stroke="#FFFFFF" stroke-opacity="1.000000" stroke-width="2.000000" stroke-linejoin="round" stroke-linecap="round" fill="none"/>

</g>


<g id="mail">

	<path id="Vector" d="M18.125 3.125L1.875 3.125C1.5293 3.125 1.25 3.4043 1.25 3.75L1.25 16.25C1.25 16.5957 1.5293 16.875 1.875 16.875L18.125 16.875C18.4707 16.875 18.75 16.5957 18.75 16.25L18.75 3.75C18.75 3.4043 18.4707 3.125 18.125 3.125ZM16.5469 5.25195L10.3848 10.0469C10.2324 10.166 10.0195 10.166 9.86719 10.0469L3.70312 5.25195C3.6799 5.23413 3.66284 5.20923 3.65439 5.18115C3.64594 5.15308 3.64648 5.12305 3.65594 5.09521C3.66541 5.06738 3.68335 5.04321 3.70721 5.02637C3.73108 5.00928 3.7597 5 3.78906 5L16.4609 5C16.4903 5 16.5189 5.00928 16.5428 5.02637C16.5667 5.04321 16.5846 5.06738 16.5941 5.09521C16.6035 5.12305 16.6041 5.15308 16.5956 5.18115C16.5872 5.20923 16.5701 5.23413 16.5469 5.25195Z" fill="#FFFFFF" fill-opacity="1.000000" fill-rule="nonzero"/>

</g>


<!--Work Icon-->

<g id="computer">

		<path id="Vector" d="M4.5 7.375C4.5 6.59265 4.81607 5.84229 5.37868 5.28906C5.94129 4.73584 6.70435 4.42505 7.5 4.42505L22.5 4.42505C23.2956 4.42505 24.0587 4.73584 24.6213 5.28906C25.1839 5.84229 25.5 6.59265 25.5 7.375L25.5 19.175C25.5 19.9574 25.1839 20.7078 24.6213 21.261C24.0587 21.8142 23.2956 22.125 22.5 22.125L19.17 22.125L19.3545 22.8463L20.5605 24.0322C20.7702 24.2385 20.913 24.5013 20.9709 24.7874C21.0287 25.0735 20.999 25.37 20.8855 25.6394C20.772 25.9089 20.5798 26.1393 20.3332 26.3014C20.0866 26.4635 19.7966 26.55 19.5 26.55L10.5 26.55C10.2034 26.55 9.91343 26.4635 9.66681 26.3014C9.4202 26.1393 9.22799 25.9089 9.11448 25.6394C9.00098 25.37 8.97127 25.0735 9.02913 24.7874C9.08698 24.5013 9.22979 24.2385 9.4395 24.0322L10.6455 22.8463L10.83 22.125L7.5 22.125C6.70435 22.125 5.94129 21.8142 5.37868 21.261C4.81607 20.7078 4.5 19.9574 4.5 19.175L4.5 7.375ZM13.1565 17.7001L7.5 17.7001L7.5 7.375L22.5 7.375L22.5 17.7001L13.1565 17.7001Z" fill-opacity="1.000000" fill-rule="evenodd" fill="currentColor"/>

</g>


<g id="paint">

		<path id="Vector" d="M24.3299 20.5852C25.8959 14.8385 22.1879 8.9032 16.0964 7.29834C9.21744 5.48413 -0.546051 10.1953 1.62595 16.2383C2.34595 18.2369 3.73193 18.7046 6.34644 18.7415L6.50995 18.7444C7.89145 18.7606 8.27994 18.8491 8.39694 19.0349C8.58743 19.3417 8.59042 19.83 8.37595 21.1737C8.27393 21.808 8.24094 22.0292 8.20193 22.3759C7.96344 24.4866 8.32645 26.1326 9.73193 27.6224C14.1239 32.2731 22.5614 27.0721 24.3299 20.5852ZM4.45493 15.2531C3.36145 12.2145 10.3589 8.83826 15.3194 10.1451C19.8449 11.3384 22.5584 15.6823 21.4319 19.8196C20.1749 24.4335 14.2589 28.0796 11.9309 25.6134C11.2109 24.8523 11.0324 24.0381 11.1839 22.7003C11.2154 22.4142 11.2454 22.2166 11.3399 21.6294C11.6684 19.5688 11.6639 18.6278 10.9529 17.4906C10.062 16.0643 9.00293 15.8239 6.54742 15.7928L6.38843 15.7899C4.94244 15.7708 4.59894 15.6542 4.45343 15.2531L4.45493 15.2531Z"  fill-opacity="1.000000" fill-rule="evenodd" fill="currentColor"/>
		<path id="Vector" d="M9 14.75C8.50272 14.75 8.02582 14.5558 7.67416 14.21C7.32254 13.8643 7.125 13.3953 7.125 12.9062C7.125 12.4172 7.32254 11.9482 7.67416 11.6025C8.02582 11.2567 8.50272 11.0625 9 11.0625C9.49728 11.0625 9.97418 11.2567 10.3258 11.6025C10.6775 11.9482 10.875 12.4172 10.875 12.9062C10.875 13.3953 10.6775 13.8643 10.3258 14.21C9.97418 14.5558 9.49728 14.75 9 14.75Z"  fill-opacity="1.000000" fill-rule="nonzero" fill="currentColor"/>
		<path id="Vector" d="M14.625 14.75C14.1277 14.75 13.6508 14.5558 13.2992 14.21C12.9475 13.8643 12.75 13.3953 12.75 12.9062C12.75 12.4172 12.9475 11.9482 13.2992 11.6025C13.6508 11.2567 14.1277 11.0625 14.625 11.0625C15.1223 11.0625 15.5992 11.2567 15.9508 11.6025C16.3025 11.9482 16.5 12.4172 16.5 12.9062C16.5 13.3953 16.3025 13.8643 15.9508 14.21C15.5992 14.5558 15.1223 14.75 14.625 14.75Z" fill-opacity="1.000000" fill-rule="nonzero" fill="currentColor"/>
		<path id="Vector" d="M18.375 19.175C17.8777 19.175 17.4008 18.9808 17.0492 18.635C16.6975 18.2893 16.5 17.8203 16.5 17.3313C16.5 16.8423 16.6975 16.3733 17.0492 16.0276C17.4008 15.6818 17.8777 15.4875 18.375 15.4875C18.8723 15.4875 19.3492 15.6818 19.7008 16.0276C20.0525 16.3733 20.25 16.8423 20.25 17.3313C20.25 17.8203 20.0525 18.2893 19.7008 18.635C19.3492 18.9808 18.8723 19.175 18.375 19.175Z" fill="currentColor" fill-opacity="1.000000" fill-rule="nonzero"/>
		<path id="Vector" d="M16.125 24.3374C15.6277 24.3374 15.1508 24.1432 14.7992 23.7974C14.4475 23.4517 14.25 22.9827 14.25 22.4937C14.25 22.0046 14.4475 21.5356 14.7992 21.1899C15.1508 20.8441 15.6277 20.6499 16.125 20.6499C16.6223 20.6499 17.0992 20.8441 17.4508 21.1899C17.8025 21.5356 18 22.0046 18 22.4937C18 22.9827 17.8025 23.4517 17.4508 23.7974C17.0992 24.1432 16.6223 24.3374 16.125 24.3374Z" fill="currentColor" fill-opacity="1.000000" fill-rule="nonzero"/>
		<path id="Vector" d="M21.555 5.31738C21.7328 5.22375 21.9281 5.16626 22.1291 5.14856C22.33 5.13074 22.5326 5.15308 22.7246 5.21399C22.9166 5.27502 23.0941 5.37354 23.2465 5.50354C23.3989 5.63354 23.523 5.79248 23.6115 5.97083L29.751 18.3608C29.8535 18.5835 29.8659 18.8363 29.7857 19.0676C29.7055 19.2991 29.5387 19.4917 29.3192 19.6064C29.0997 19.7213 28.844 19.7495 28.6041 19.6855C28.3641 19.6216 28.158 19.4702 28.0275 19.2621L20.9655 7.35876C20.864 7.18762 20.7987 6.99792 20.7735 6.80127C20.7483 6.60461 20.7638 6.40503 20.819 6.21436C20.8742 6.0238 20.968 5.84607 21.0947 5.69189C21.2214 5.53772 21.3785 5.4104 21.5565 5.31738L21.555 5.31738Z" fill="currentColor" fill-opacity="1.000000" fill-rule="nonzero"/>
		<path id="Vector" d="M18.8055 5.13904C19.536 6.48865 20.7645 6.86621 21.9525 6.24524C23.139 5.62573 23.5095 4.41187 22.779 3.06213C21.945 1.51636 20.157 0.115112 18.972 0.733154C17.787 1.35266 17.97 3.59314 18.807 5.13904L18.8055 5.13904ZM20.13 4.44568C19.8644 3.92126 19.7015 3.35229 19.65 2.76868C19.6277 2.52466 19.6367 2.27881 19.677 2.03711L19.704 2.05029C19.779 2.08569 20.0115 2.19189 20.3085 2.42505C20.7615 2.78052 21.2115 3.30408 21.4545 3.75391C21.798 4.38818 21.7005 4.70679 21.2475 4.94434C20.7975 5.1803 20.4735 5.07996 20.13 4.44727L20.13 4.44568Z" fill="currentColor" fill-opacity="1.000000" fill-rule="evenodd"/>

</g>


<g id="lighting">

		<path id="Vector" d="M17.0597 1L8.66467 1C8.19592 1 7.76215 1.23596 7.52844 1.61707L1.1759 12.0109C0.674683 12.8295 1.30469 13.851 2.31091 13.851L6.59717 13.851L2.55969 23.7642C1.97589 25.0179 3.55341 26.1647 4.6134 25.2576L20.9997 10.011L12.4384 10.011L18.1047 2.97034C18.7559 2.16028 18.1422 1 17.0597 1Z"  stroke-opacity="1.000000" stroke-width="2.000000" stroke-linejoin="round" stroke="currentColor" fill="transparent"/>

</g>


<!--Contact Icon-->

<g id="dribble">

		<path id="Vector" d="M22.1218 16.4978C21.5953 17.7648 20.823 18.9149 19.8495 19.8817C18.8839 20.8456 17.7378 21.6097 16.4767 22.1305C15.2157 22.6512 13.8643 22.9184 12.5 22.9166C6.74686 22.9166 2.08331 18.2531 2.08331 12.4999C2.07968 9.82898 3.10565 7.25937 4.94791 5.32544C5.91995 4.29971 7.09109 3.48312 8.38965 2.92566C9.6882 2.36816 11.0868 2.08151 12.5 2.08325C13.8643 2.08148 15.2157 2.3486 16.4767 2.86935C17.7378 3.39011 18.8839 4.15427 19.8495 5.11816C20.823 6.08493 21.5953 7.23508 22.1218 8.50208C22.6483 9.7691 22.9184 11.1279 22.9167 12.4999C22.9184 13.872 22.6483 15.2307 22.1218 16.4978Z" stroke="#FFFFFF" stroke-opacity="1.000000" stroke-width="2.000000" stroke-linejoin="round"/>
		<path id="Vector" d="M22.9167 12.5C21.3969 12.5 17.2042 11.9271 13.4516 13.5745C9.375 15.3646 6.42346 18.1411 5.13699 19.8682" stroke="#FFFFFF" stroke-opacity="1.000000" stroke-width="2.000000" stroke-linejoin="round" stroke-linecap="round"/>
		<path id="Vector" d="M8.59375 2.84058C10.224 4.34528 13.7812 8.17651 15.1042 11.9791C16.4271 15.7822 16.9167 20.4583 17.2188 21.789" stroke="#FFFFFF" stroke-opacity="1.000000" stroke-width="2.000000" stroke-linejoin="round" stroke-linecap="round"/>
		<path id="Vector" d="M2.16354 11.198C4.13126 11.3167 9.34012 11.4235 12.6734 10.0001C16.0068 8.57663 18.875 5.9584 19.8589 5.12769" stroke="#FFFFFF" stroke-opacity="1.000000" stroke-width="2.000000" stroke-linejoin="round" stroke-linecap="round"/>
		<path id="Vector" d="M2.86459 16.4651C3.78247 18.6869 5.43787 20.5246 7.55209 21.6687" stroke="#FFFFFF" stroke-opacity="1.000000" stroke-width="2.000000" stroke-linejoin="round" stroke-linecap="round"/>
		<path id="Vector" d="M2.08331 12.4999C2.07968 9.82898 3.10565 7.25937 4.94791 5.32544" stroke="#FFFFFF" stroke-opacity="1.000000" stroke-width="2.000000" stroke-linejoin="round" stroke-linecap="round"/>
		<path id="Vector" d="M12.5 2.08325C11.0869 2.08151 9.68823 2.36816 8.38968 2.92566C7.09113 3.48312 5.91998 4.29971 4.94794 5.32544" stroke="#FFFFFF" stroke-opacity="1.000000" stroke-width="2.000000" stroke-linejoin="round" stroke-linecap="round"/>
		<path id="Vector" d="M16.6667 2.94995C17.8529 3.46899 18.9323 4.20425 19.8495 5.11819C20.8231 6.08496 21.5954 7.23511 22.1218 8.50211C22.6483 9.76913 22.9185 11.1279 22.9167 12.4999C22.9167 13.7828 22.6849 15.0109 22.2604 16.1458" stroke="#FFFFFF" stroke-opacity="1.000000" stroke-width="2.000000" stroke-linejoin="round" stroke-linecap="round"/>
		<path id="Vector" d="M12.5 22.9167C13.8643 22.9185 15.2157 22.6514 16.4767 22.1306C17.7378 21.6099 18.8839 20.8457 19.8495 19.8818" stroke="#FFFFFF" stroke-opacity="1.000000" stroke-width="2.000000" stroke-linejoin="round" stroke-linecap="round"/>

</g>


<g id="upwork2">

		<path id="Vector" d="M19.3359 13.7046C18.1883 13.7046 17.1102 13.2202 16.1336 12.4272L16.3695 11.3085L16.3773 11.264C16.593 10.0757 17.2602 8.07803 19.3351 8.07803C20.0818 8.07825 20.7979 8.37494 21.3259 8.90292C21.8539 9.43091 22.1506 10.147 22.1508 10.8936C22.1495 11.6396 21.8524 12.3547 21.3245 12.8818C20.7966 13.409 20.0812 13.7052 19.3351 13.7054L19.3359 13.7046ZM19.3359 5.22882C16.6914 5.22882 14.6359 6.94598 13.8023 9.77411C12.5328 7.86554 11.5641 5.57098 11.0031 3.63818L8.15469 3.63818L8.15469 11.0475C8.15323 11.7508 7.87326 12.4248 7.37601 12.922C6.87875 13.4193 6.20477 13.6992 5.50156 13.7007C4.79855 13.6986 4.12491 13.4184 3.62781 12.9213C3.13068 12.4242 2.85049 11.7506 2.84845 11.0475L2.84845 3.63818L0 3.63818L0 11.0475C0 14.0827 2.46954 16.5694 5.50156 16.5694C8.53671 16.5694 11.0031 14.0835 11.0031 11.0475L11.0031 9.80615C11.5562 10.9577 12.2359 12.1296 13.0617 13.1632L11.3164 21.3624L14.2297 21.3624L15.4953 15.4132C16.6024 16.121 17.8758 16.5687 19.3367 16.5687C22.4617 16.5687 25.0008 14.0132 25.0008 10.8921C25.0008 7.76709 22.4617 5.22803 19.3367 5.22803L19.3359 5.22882Z" fill="#FFFFFF" fill-opacity="1.000000" fill-rule="nonzero"/>

</g>


<g id="youtube">

		<path id="Vector" d="M24.4798 6.77826C24.3383 6.27328 24.0625 5.8161 23.6819 5.45532C23.2905 5.08347 22.8109 4.81744 22.2881 4.6824C20.3319 4.16678 12.4944 4.16678 12.4944 4.16678C9.22704 4.12961 5.96046 4.29312 2.71315 4.65637C2.19043 4.80139 1.71164 5.07333 1.3194 5.44803C0.933975 5.81888 0.654816 6.27615 0.508972 6.77719C0.158661 8.66443 -0.0115509 10.5807 0.000640869 12.5001C-0.0118561 14.4178 0.157928 16.3335 0.508972 18.223C0.651688 18.722 0.92981 19.1772 1.31627 19.5449C1.70273 19.9126 2.18398 20.1783 2.71315 20.3189C4.69543 20.8335 12.4944 20.8335 12.4944 20.8335C15.7659 20.8707 19.0367 20.7072 22.2881 20.3439C22.8109 20.2088 23.2905 19.9428 23.6819 19.571C24.0673 19.2032 24.3413 18.7459 24.4788 18.248C24.8382 16.3615 25.013 14.4445 25.0006 12.5241C25.0277 10.5956 24.8531 8.66946 24.4798 6.77719L24.4798 6.77826ZM10.0027 16.0668L10.0027 8.93451L16.5236 12.5012L10.0027 16.0668Z" fill="#FFFFFF" fill-opacity="1.000000" fill-rule="nonzero"/>

</g>


<g id="linkedin">

	<path id="Vector" d="M1.04169 2.95633C1.04169 2.44855 1.24341 1.96158 1.60246 1.60251C1.96152 1.24347 2.44849 1.04175 2.95627 1.04175L22.0417 1.04175C22.2933 1.04135 22.5426 1.09058 22.7752 1.18661C23.0078 1.28265 23.2191 1.42365 23.3972 1.60147C23.5752 1.77933 23.7164 1.99054 23.8127 2.22302C23.909 2.45551 23.9585 2.70468 23.9584 2.95633L23.9584 22.0417C23.9586 22.2935 23.9093 22.5427 23.8131 22.7753C23.717 23.0079 23.5759 23.2193 23.398 23.3973C23.22 23.5753 23.0088 23.7165 22.7762 23.8128C22.5437 23.9091 22.2944 23.9586 22.0427 23.9584L2.95627 23.9584C2.70476 23.9584 2.4557 23.9089 2.22336 23.8126C1.991 23.7163 1.77989 23.5752 1.60208 23.3973C1.42429 23.2194 1.28328 23.0082 1.18713 22.7758C1.09097 22.5434 1.04155 22.2943 1.04169 22.0428L1.04169 2.95633ZM10.1125 9.77924L13.2156 9.77924L13.2156 11.3376C13.6636 10.4417 14.8094 9.6355 16.5313 9.6355C19.8323 9.6355 20.6146 11.4199 20.6146 14.6938L20.6146 20.7584L17.274 20.7584L17.274 15.4397C17.274 13.5751 16.8261 12.523 15.6886 12.523C14.1104 12.523 13.4542 13.6574 13.4542 15.4397L13.4542 20.7584L10.1125 20.7584L10.1125 9.77924ZM4.38336 20.6157L7.72502 20.6157L7.72502 9.6355L4.38336 9.6355L4.38336 20.6147L4.38336 20.6157ZM8.20314 6.05426C8.20944 6.34036 8.15854 6.62485 8.05339 6.89105C7.94826 7.15723 7.79102 7.39972 7.59088 7.60428C7.39076 7.80887 7.15179 7.97141 6.888 8.0824C6.62421 8.19336 6.3409 8.25052 6.0547 8.25052C5.76852 8.25052 5.48521 8.19336 5.22142 8.0824C4.95763 7.97141 4.71866 7.80887 4.51852 7.60428C4.31841 7.39972 4.16116 7.15723 4.05602 6.89105C3.95088 6.62485 3.89996 6.34036 3.90627 6.05426C3.91864 5.49265 4.15042 4.95819 4.55199 4.56537C4.95355 4.17258 5.49297 3.95261 6.0547 3.95261C6.61646 3.95261 7.15587 4.17258 7.55743 4.56537C7.959 4.95819 8.19078 5.49265 8.20314 6.05426Z" fill="#FFFFFF" fill-opacity="1.000000" fill-rule="evenodd"/>

</g>


<g id="github">

		<path id="Vector" d="M12.5 0C5.59375 0 0 5.59375 0 12.5C0 18.0312 3.57812 22.7031 8.54688 24.3594C9.17188 24.4688 9.40625 24.0938 9.40625 23.7656C9.40625 23.4688 9.39062 22.4844 9.39062 21.4375C6.25 22.0156 5.4375 20.6719 5.1875 19.9688C5.04688 19.6094 4.4375 18.5 3.90625 18.2031C3.46875 17.9688 2.84375 17.3906 3.89062 17.375C4.875 17.3594 5.57812 18.2812 5.8125 18.6562C6.9375 20.5469 8.73438 20.0156 9.45312 19.6875C9.5625 18.875 9.89062 18.3281 10.25 18.0156C7.46875 17.7031 4.5625 16.625 4.5625 11.8438C4.5625 10.4844 5.04688 9.35938 5.84375 8.48438C5.71875 8.17188 5.28125 6.89062 5.96875 5.17188C5.96875 5.17188 7.01562 4.84375 9.40625 6.45312C10.4062 6.17188 11.4688 6.03125 12.5312 6.03125C13.5938 6.03125 14.6562 6.17188 15.6562 6.45312C18.0469 4.82812 19.0938 5.17188 19.0938 5.17188C19.7812 6.89062 19.3438 8.17188 19.2188 8.48438C20.0156 9.35938 20.5 10.4688 20.5 11.8438C20.5 16.6406 17.5781 17.7031 14.7969 18.0156C15.25 18.4062 15.6406 19.1562 15.6406 20.3281C15.6406 22 15.625 23.3438 15.625 23.7656C15.625 24.0938 15.8594 24.4844 16.4844 24.3594C18.9658 23.5216 21.1221 21.9268 22.6497 19.7993C24.1772 17.6719 24.9993 15.119 25 12.5C25 5.59375 19.4062 0 12.5 0Z" fill="#FFFFFF" fill-opacity="1.000000" fill-rule="evenodd"/>

</g>


<!--Othets Icon-->

<g id="arrow-right">

		<path id="Vector" d="M6.66669 20L33.3334 20" stroke="#676CDB" stroke-opacity="1.000000" stroke-width="2.000000" stroke-linejoin="round" stroke-linecap="round"/>
		<path id="Vector" d="M21.6667 8.33325L33.3334 19.9999L21.6667 31.6666" stroke="#676CDB" stroke-opacity="1.000000" stroke-width="2.000000" stroke-linejoin="round" stroke-linecap="round" fill="none"/>

</g>


<g id="arrow-left">

	<path id="Vector" d="M33.3334 20L6.66671 20" stroke="#676CDB" stroke-opacity="1.000000" stroke-width="2.000000" stroke-linejoin="round" stroke-linecap="round"/>
	<path id="Vector" d="M18.3334 31.6667L6.66671 20.0001L18.3334 8.33337" stroke="#676CDB" stroke-opacity="1.000000" stroke-width="2.000000" stroke-linejoin="round" stroke-linecap="round" fill="none"/>

</g>


<g id="quotation-marks">

		<path id="“" d="M29.9 27.8C26.6333 27.8 24.2667 26.6334 22.8 24.3C22.1333 23.3 21.6 22.0667 21.2 20.6C20.8 19.1334 20.6 17.6 20.6 16C20.6 12.5334 21.4667 9.40002 23.2 6.60003C25 3.80003 27.6333 1.60002 31.1 2.28882e-05L32 1.80003C30.0667 2.60002 28.3667 3.83336 26.9 5.50002C25.5 7.16669 24.6667 8.86669 24.4 10.6C24.2 11.4 24.1 12.1667 24.1 12.9C24.1 13.5667 24.2 14.2 24.4 14.8C25.8667 13.2 27.8 12.4 30.2 12.4C32.5333 12.4 34.4333 13.1 35.9 14.5C37.3667 15.8334 38.1 17.7 38.1 20.1C38.1 22.3667 37.3333 24.2334 35.8 25.7C34.2667 27.1 32.3 27.8 29.9 27.8ZM9.3 27.8C6.03333 27.8 3.66667 26.6334 2.2 24.3C1.53333 23.3 0.999999 22.0667 0.599998 20.6C0.199999 19.1334 -9.53674e-07 17.6 -9.53674e-07 16C-9.53674e-07 12.5334 0.866665 9.40002 2.6 6.60003C4.4 3.80003 7.03333 1.60002 10.5 2.28882e-05L11.4 1.80003C9.46667 2.60002 7.76667 3.83336 6.3 5.50002C4.9 7.16669 4.06667 8.86669 3.8 10.6C3.6 11.4 3.5 12.1667 3.5 12.9C3.5 13.5667 3.6 14.2 3.8 14.8C5.26667 13.2 7.2 12.4 9.6 12.4C11.9333 12.4 13.8333 13.1 15.3 14.5C16.7667 15.8334 17.5 17.7 17.5 20.1C17.5 22.3667 16.7333 24.2334 15.2 25.7C13.6667 27.1 11.7 27.8 9.3 27.8Z" fill="#C4C4C4" fill-opacity="1.000000" fill-rule="evenodd"/>

</g>


<g id="logo">
<path d="M40,7c-18.196,0 -33,14.804 -33,33c0,18.196 14.804,33 33,33c18.196,0 33,-14.804 33,-33c0,-18.196 -14.804,-33 -33,-33zM40,9c17.094,0 31,13.906 31,31c0,17.094 -13.906,31 -31,31c-17.094,0 -31,-13.906 -31,-31c0,-17.094 13.906,-31 31,-31zM39.90039,11.00391c-0.09613,0.01012 -0.19125,0.03617 -0.28125,0.07617c-0.13,0.05 -0.23008,0.11899 -0.33008,0.20898c-0.09,0.1 -0.15898,0.21008 -0.20898,0.33008c-0.05,0.12 -0.08008,0.25086 -0.08008,0.38086c0,0.27 0.09906,0.52094 0.28906,0.71094c0.1,0.09 0.20008,0.15898 0.33008,0.20898c0.12,0.05 0.25086,0.08008 0.38086,0.08008c0.27,0 0.52094,-0.10006 0.71094,-0.28906c0.189,-0.19 0.28906,-0.44094 0.28906,-0.71094c0,-0.13 -0.03008,-0.25891 -0.08008,-0.37891c-0.05,-0.12 -0.12094,-0.23008 -0.21094,-0.33008c-0.05,-0.04 -0.10016,-0.08914 -0.16016,-0.11914c-0.05,-0.04 -0.10992,-0.0718 -0.16992,-0.0918c-0.06,-0.031 -0.11945,-0.04955 -0.18945,-0.06055c-0.0945,-0.0205 -0.19294,-0.02575 -0.28906,-0.01562zM35.88477,11.26172l-0.29102,0.04101c-0.408,0.056 -0.8158,0.11145 -1.2168,0.18945c-0.046,0.009 -0.09272,0.02016 -0.13672,0.03516c-7.146,2.448 -11.94727,9.15636 -11.94727,16.69336c0,2.988 0.76594,5.94474 2.21094,8.55273c0.18,0.324 0.50358,0.51163 0.89258,0.51562c3.899,-0.075 7.48463,1.98133 9.39063,5.36133c2.856,5.063 1.06105,11.50823 -4.00195,14.36523c-4.555,2.568 -10.41191,1.47598 -13.62891,-2.54102c-0.332,-0.417 -0.93228,-0.49945 -1.36328,-0.18945c-0.433,0.311 -0.54677,0.90652 -0.25977,1.35352c0.24,0.374 0.49006,0.73925 0.78906,1.15625c3.441,4.208 8.57039,6.45022 13.77539,6.44922c3.143,0 6.31711,-0.81672 9.16211,-2.51172c2.327,-1.387 4.26481,-3.25755 5.75781,-5.56055c0.211,-0.324 0.21472,-0.74131 0.01172,-1.07031c-2.125,-3.434 -2.09673,-7.84342 0.07227,-11.23242c3.136,-4.896 9.66745,-6.32831 14.56445,-3.19531c4.094,2.621 5.92452,7.87233 4.35352,12.48633c-0.169,0.497 0.07655,1.04114 0.56055,1.24414c0.482,0.206 1.0433,-0.00161 1.2793,-0.47461l0.11328,-0.22266c0.218,-0.431 0.4342,-0.86353 0.6582,-1.39453c2.561,-7.784 -0.64409,-16.53083 -7.62109,-20.79883c-2.725,-1.668 -5.8678,-2.56103 -9.0918,-2.58203h-0.00781c-0.354,0 -0.67938,0.18619 -0.85937,0.49219c-1.893,3.214 -5.37298,5.21094 -9.08398,5.21094c-5.815,0 -10.54492,-4.73192 -10.54492,-10.54492c0,-4.41 2.79031,-8.38744 6.94531,-9.89844c0.482,-0.175 0.75195,-0.68464 0.62695,-1.18164c-0.124,-0.497 -0.59837,-0.81905 -1.10937,-0.74805zM44.2207,11.29883c-0.55,-0.08 -1.06063,0.29961 -1.14062,0.84961c-0.08,0.551 0.29961,1.05062 0.84961,1.14062v-0.00976c0.049,0.01 0.09063,0.00976 0.14062,0.00976c0.49,0 0.92123,-0.34961 0.99023,-0.84961c0.08,-0.55 -0.29984,-1.05086 -0.83984,-1.13086zM47.94336,12.18359c-0.38813,0.04172 -0.73125,0.30953 -0.84375,0.70703c-0.16,0.53 0.14092,1.09 0.66992,1.25c0.089,0.03 0.19125,0.03906 0.28125,0.03906c0.43,0 0.82898,-0.27899 0.95898,-0.70899c0.16,-0.53 -0.13992,-1.09 -0.66992,-1.25c-0.1325,-0.04 -0.26711,-0.05101 -0.39648,-0.03711zM51.9043,13.63672c-0.3907,-0.01453 -0.77161,0.19922 -0.94336,0.57422c-0.241,0.5 -0.02148,1.09812 0.47852,1.32812c0.141,0.069 0.28092,0.10156 0.41992,0.10156c0.381,0 0.74016,-0.21008 0.91016,-0.58008c0.231,-0.5 0.01953,-1.09008 -0.48047,-1.33008c-0.125,-0.0575 -0.25453,-0.08891 -0.38477,-0.09375zM55.60156,15.65234c-0.3825,-0.07078 -0.78672,0.085 -1.01172,0.4375c-0.31,0.45 -0.1807,1.07086 0.2793,1.38086c0.17,0.11 0.35978,0.16992 0.55078,0.16992c0.32,0 0.64008,-0.16117 0.83008,-0.45117c0.31,-0.46 0.1807,-1.07867 -0.2793,-1.38867c-0.115,-0.075 -0.24164,-0.12484 -0.36914,-0.14844zM22.92578,16.85938c-0.08188,-0.00406 -0.16359,0.00203 -0.24609,0.01953c-0.059,0.01 -0.12945,0.03155 -0.18945,0.06055c-0.061,0.021 -0.12088,0.04984 -0.17187,0.08984c-0.049,0.039 -0.10844,0.07914 -0.14844,0.11914c-0.191,0.19 -0.30078,0.45094 -0.30078,0.71094c0,0.271 0.11078,0.51998 0.30078,0.70898c0.18,0.19 0.43994,0.29102 0.71094,0.29102c0.26,0 0.51727,-0.10002 0.69727,-0.29102c0.19,-0.189 0.30078,-0.43798 0.30078,-0.70898c0,-0.26 -0.11178,-0.52094 -0.30078,-0.71094c-0.1725,-0.1725 -0.40672,-0.27688 -0.65234,-0.28906zM28.9707,17.07422c-0.994,1.809 -1.54883,3.86767 -1.54883,6.01367c0,6.917 5.62792,12.54492 12.54492,12.54492c4.218,0 8.18514,-2.16645 10.49414,-5.68945c2.664,0.11 5.24881,0.89144 7.50781,2.27344c3.989,2.441 6.58798,6.53194 7.33398,10.96094c-0.995,-2.082 -2.54659,-3.90441 -4.55859,-5.19141c-5.825,-3.732 -13.59522,-2.02327 -17.32422,3.80273c-2.464,3.849 -2.60892,8.80383 -0.41992,12.79883c-1.275,1.813 -2.87467,3.29883 -4.76367,4.42383c-4.151,2.474 -9.07977,2.84814 -13.38477,1.36914c2.354,0.122 4.75902,-0.40505 6.91602,-1.62305c6.025,-3.401 8.15972,-11.06684 4.76172,-17.08984c-2.167,-3.841 -6.16688,-6.242 -10.54687,-6.375c-1.106,-2.184 -1.6875,-4.61727 -1.6875,-7.07227c0,-4.285 1.74878,-8.26748 4.67578,-11.14648zM58.59375,18.13281c-0.25762,0.0125 -0.51031,0.12313 -0.69531,0.32813c-0.369,0.42 -0.32992,1.04992 0.08008,1.41992c0.191,0.17 0.43092,0.25 0.66992,0.25c0.27,0 0.55123,-0.11008 0.74023,-0.33008c0.37,-0.41 0.33969,-1.05016 -0.07031,-1.41016c-0.2045,-0.185 -0.46698,-0.27031 -0.72461,-0.25781zM19.76758,19.64258c-0.255,0.005 -0.50677,0.10664 -0.69727,0.30664c-0.39,0.399 -0.3697,1.03016 0.0293,1.41016c0.19,0.191 0.43945,0.28125 0.68945,0.28125c0.26,0 0.5207,-0.10055 0.7207,-0.31055c0.38,-0.4 0.3707,-1.03016 -0.0293,-1.41016c-0.1995,-0.19 -0.45789,-0.28234 -0.71289,-0.27734zM61.57422,21.06836c-0.255,-0.0225 -0.51937,0.05242 -0.73437,0.23242c-0.42,0.349 -0.47914,0.98016 -0.11914,1.41016c0.19,0.229 0.47977,0.34866 0.75977,0.34766c0.23,0 0.46039,-0.06852 0.65039,-0.22852c0.42,-0.35 0.47814,-0.98016 0.11914,-1.41016c-0.175,-0.21 -0.42078,-0.32906 -0.67578,-0.35156zM16.98633,22.8418c-0.25125,0.04387 -0.48648,0.1832 -0.64648,0.4082c-0.321,0.451 -0.21977,1.07062 0.24023,1.39063c0.17,0.13 0.37031,0.18945 0.57031,0.18945c0.32,0 0.62031,-0.14992 0.82031,-0.41992c0.321,-0.46 0.20977,-1.08039 -0.24023,-1.40039c-0.225,-0.1605 -0.49289,-0.21184 -0.74414,-0.16797zM63.71289,24.38281c-0.12875,0.01938 -0.25555,0.06422 -0.37305,0.13672c-0.469,0.29 -0.61031,0.90891 -0.32031,1.37891c0.19,0.301 0.50961,0.4707 0.84961,0.4707c0.18,0 0.36148,-0.03962 0.52148,-0.14062c0.47,-0.29 0.62008,-0.90891 0.33008,-1.37891c-0.2175,-0.3525 -0.62156,-0.52492 -1.00781,-0.4668zM15.08789,26.36523c-0.39014,-0.02625 -0.7793,0.17742 -0.9668,0.54492c-0.25,0.49 -0.05055,1.09961 0.43945,1.34961c0.15,0.07 0.29917,0.09861 0.45117,0.09961c0.37,0 0.71744,-0.19806 0.89844,-0.53906c0.25,-0.5 0.05055,-1.09961 -0.43945,-1.34961c-0.12275,-0.0625 -0.25277,-0.09672 -0.38281,-0.10547zM65.74023,27.99609c-0.13055,0.00145 -0.26313,0.02873 -0.39062,0.08398c-0.51,0.21 -0.74053,0.80055 -0.51953,1.31055c0.16,0.38 0.52892,0.59861 0.91992,0.59961c0.13,0 0.26063,-0.02008 0.39063,-0.08008c0.509,-0.221 0.7393,-0.80055 0.5293,-1.31055c-0.16425,-0.3825 -0.53805,-0.60787 -0.92969,-0.60352zM13.34375,30.18164c-0.38948,0.03141 -0.73773,0.28773 -0.86523,0.67773h-0.00977c-0.17,0.531 0.11163,1.09148 0.64063,1.27148c0.101,0.03 0.20955,0.04983 0.31055,0.04883c0.42,0 0.80822,-0.26945 0.94922,-0.68945c0.18,-0.521 -0.10891,-1.09172 -0.62891,-1.26172c-0.13275,-0.0425 -0.26666,-0.05734 -0.39648,-0.04687zM67.21289,31.85742c-0.1283,-0.01859 -0.26203,-0.01156 -0.39453,0.02344c-0.539,0.14 -0.84898,0.68875 -0.70898,1.21875c0.12,0.45 0.5207,0.751 0.9707,0.75c0.08,0 0.17,-0.01025 0.25,-0.03125c0.529,-0.139 0.84898,-0.68852 0.70898,-1.22852c-0.10575,-0.3975 -0.44128,-0.67664 -0.82617,-0.73242zM12.57813,34.20117c-0.54,-0.091 -1.05844,0.26836 -1.14844,0.81836c-0.099,0.54 0.27055,1.06039 0.81055,1.15039c0.06,0.01 0.11797,0.01853 0.16797,0.01953c0.479,0 0.90024,-0.34008 0.99024,-0.83008c0.091,-0.55 -0.27031,-1.0582 -0.82031,-1.1582zM67.82422,35.88867c-0.26,0.00125 -0.52008,0.09625 -0.70508,0.28125c-0.09,0.09 -0.1697,0.20031 -0.2207,0.32031c-0.049,0.119 -0.06836,0.25062 -0.06836,0.39063c0,0.13 0.01836,0.25891 0.06836,0.37891c0.051,0.12 0.1197,0.23031 0.2207,0.32031c0.09,0.1 0.20031,0.1717 0.32031,0.2207c0.12,0.049 0.24962,0.06836 0.39063,0.06836c0.27,0 0.51922,-0.09906 0.69922,-0.28906c0.19,-0.19 0.30078,-0.43922 0.30078,-0.69922c0,-0.14 -0.03008,-0.26062 -0.08008,-0.39062c-0.05,-0.12 -0.1207,-0.23031 -0.2207,-0.32031c-0.185,-0.19 -0.44508,-0.2825 -0.70508,-0.28125zM12.0293,38.30078c-0.551,-0.01 -1.00953,0.42752 -1.01953,0.97852c-0.019,0.55 0.41875,1.01148 0.96875,1.02148h0.03125c0.54,0 0.98,-0.4307 1,-0.9707c0.01,-0.56 -0.43047,-1.0193 -0.98047,-1.0293zM12.08984,42.43945c-0.55,0.07 -0.93914,0.56133 -0.86914,1.11133c0.06,0.51 0.49024,0.87891 0.99024,0.87891h0.11914c0.55,-0.07 0.93814,-0.56914 0.86914,-1.11914c-0.07,-0.55 -0.56937,-0.94009 -1.10937,-0.87109zM13.14453,46.49219c-0.12842,-0.01723 -0.26203,-0.00991 -0.39453,0.02734c-0.53673,0.14909 -0.84278,0.69364 -0.69922,1.23047c0.12,0.45 0.52975,0.74023 0.96875,0.74023c0.08,0 0.16877,-0.01201 0.25977,-0.04102c0.529,-0.15 0.84922,-0.69852 0.69922,-1.22852c-0.11175,-0.3975 -0.44872,-0.67681 -0.83399,-0.72852zM14.31641,50.37891c-0.09625,0.0115 -0.19261,0.03531 -0.28711,0.07031c-0.12,0.05 -0.22836,0.1197 -0.31836,0.2207c-0.191,0.179 -0.30078,0.43822 -0.30078,0.69922c0,0.27 0.11078,0.52094 0.30078,0.71094c0.18,0.189 0.43798,0.28906 0.70898,0.28906c0.26,0 0.51922,-0.09906 0.69922,-0.28906c0.19,-0.19 0.30078,-0.44094 0.30078,-0.71094c0,-0.261 -0.11178,-0.51922 -0.30078,-0.69922c-0.04,-0.05 -0.10039,-0.09086 -0.15039,-0.13086c-0.05,-0.03 -0.10992,-0.06084 -0.16992,-0.08984c-0.059,-0.021 -0.12845,-0.03955 -0.18945,-0.06055c-0.0995,-0.02 -0.19672,-0.02127 -0.29297,-0.00977zM62.52539,55.48242c-0.09862,0.00875 -0.19516,0.03141 -0.28516,0.06641c-0.12,0.05 -0.23031,0.1307 -0.32031,0.2207c-0.101,0.09 -0.1707,0.20008 -0.2207,0.33008c-0.051,0.12 -0.08008,0.24891 -0.08008,0.37891c0,0.261 0.11078,0.51217 0.30078,0.70117c0.189,0.191 0.43994,0.29883 0.71094,0.29883c0.26,0 0.50827,-0.10783 0.69727,-0.29883c0.1,-0.09 0.1707,-0.20031 0.2207,-0.32031c0.049,-0.119 0.07031,-0.25086 0.07031,-0.38086c0,-0.13 -0.02031,-0.25891 -0.07031,-0.37891c-0.05,-0.13 -0.1307,-0.24008 -0.2207,-0.33008c-0.04,-0.05 -0.09844,-0.09109 -0.14844,-0.12109c-0.05,-0.04 -0.10992,-0.06961 -0.16992,-0.09961c-0.059,-0.02 -0.13041,-0.04078 -0.19141,-0.05078c-0.0945,-0.02 -0.19434,-0.02437 -0.29297,-0.01562zM59.92969,58.63867c-0.25637,0.00125 -0.51117,0.10128 -0.70117,0.30078c-0.389,0.39 -0.38828,1.02016 0.01172,1.41016c0.19,0.19 0.44922,0.29102 0.69922,0.29102c0.261,0 0.51998,-0.10078 0.70898,-0.30078c0.39,-0.389 0.38123,-1.03016 -0.00977,-1.41016c-0.1945,-0.1945 -0.45261,-0.29227 -0.70898,-0.29102zM56.95703,61.38281c-0.25263,-0.03625 -0.51633,0.023 -0.73633,0.1875c-0.45,0.33 -0.53117,0.96139 -0.20117,1.40039c0.2,0.259 0.49983,0.39844 0.79883,0.39844c0.211,0 0.42156,-0.06922 0.60156,-0.19922c0.439,-0.33 0.52922,-0.96039 0.19922,-1.40039c-0.1695,-0.2195 -0.40948,-0.35047 -0.66211,-0.38672zM53.23047,63.61914c-0.12937,0.01358 -0.25836,0.05334 -0.38086,0.12109c-0.479,0.259 -0.66139,0.86938 -0.40039,1.35938c0.18,0.33 0.52986,0.51953 0.88086,0.51953c0.16,0 0.32952,-0.03914 0.47852,-0.11914c0.48,-0.27 0.66039,-0.87937 0.40039,-1.35937c-0.2025,-0.3675 -0.59039,-0.56222 -0.97852,-0.52148zM29.25,64.86523c-0.2625,0 -0.52594,0.09516 -0.71094,0.28516c-0.09,0.091 -0.15898,0.20031 -0.20898,0.32031c-0.05,0.13 -0.08008,0.24891 -0.08008,0.37891c0,0.271 0.09906,0.52194 0.28906,0.71094c0.189,0.19 0.43994,0.28906 0.71094,0.28906c0.13,0 0.26086,-0.01936 0.38086,-0.06836c0.12,-0.051 0.22908,-0.1307 0.33008,-0.2207c0.189,-0.189 0.28906,-0.43994 0.28906,-0.71094c0,-0.26 -0.10906,-0.51822 -0.28906,-0.69922c-0.185,-0.19 -0.44844,-0.28516 -0.71094,-0.28516zM49.60352,65.32031c-0.12953,-0.00672 -0.26258,0.01305 -0.39258,0.06055c-0.521,0.189 -0.79056,0.76806 -0.60156,1.28906c0.151,0.399 0.53045,0.64939 0.93945,0.65039c0.111,0 0.23084,-0.02055 0.33984,-0.06055c0.521,-0.19 0.79056,-0.7583 0.60156,-1.2793c-0.1425,-0.39 -0.49813,-0.64 -0.88672,-0.66016zM33.05078,66.17969c-0.38578,0.05859 -0.71305,0.34273 -0.81055,0.74023c-0.14,0.54 0.1907,1.0807 0.7207,1.2207h0.00977c0.08,0.02 0.15928,0.0293 0.23828,0.0293c0.45,0 0.8507,-0.31077 0.9707,-0.75977c0.13,-0.54 -0.20147,-1.08094 -0.73047,-1.21094c-0.135,-0.035 -0.26984,-0.03906 -0.39844,-0.01953zM45.75586,66.46484c-0.12736,-0.02453 -0.26148,-0.02414 -0.39648,0.00586c-0.54,0.1 -0.8893,0.62992 -0.7793,1.16992c0.09,0.48 0.51047,0.80955 0.98047,0.81055c0.06,0 0.12922,-0.01148 0.19922,-0.02148c0.54,-0.12 0.8883,-0.63969 0.7793,-1.17969c-0.08325,-0.4125 -0.40113,-0.71156 -0.7832,-0.78516zM37.39063,66.86914c-0.55,-0.051 -1.03984,0.35039 -1.08984,0.90039c-0.05,0.55 0.34744,1.03984 0.89844,1.08984c0.029,0.011 0.06156,0.00977 0.10156,0.00977c0.5,0 0.93828,-0.38844 0.98828,-0.89844c0.05,-0.55 -0.34844,-1.04156 -0.89844,-1.10156zM41.38867,66.96094c-0.55,0.03 -0.96922,0.49883 -0.94922,1.04883c0.031,0.54 0.471,0.95117 1,0.95117h0.05078c0.55,-0.03 0.97922,-0.50078 0.94922,-1.05078c-0.029,-0.551 -0.50078,-0.97022 -1.05078,-0.94922z" fill="#aaaaaa" fill-rule="nonzero" stroke="none" stroke-width="1" stroke-linecap="butt" stroke-linejoin="miter" stroke-miterlimit="10" stroke-dasharray="" stroke-dashoffset="0" font-family="none" font-weight="none" font-size="none" text-anchor="none" style="mix-blend-mode: normal"></path>

</g>

</svg>
